<?xml version="1.0" encoding="UTF-8" standalone="no"?>
<!-- Created with Inkscape (http://www.inkscape.org/) -->

<svg
   width="211.83002mm"
   height="213.01579mm"
   viewBox="0 0 211.83002 213.01579"
   version="1.1"
   id="svg1"
   xml:space="preserve"
   xmlns:inkscape="http://www.inkscape.org/namespaces/inkscape"
   xmlns:sodipodi="http://sodipodi.sourceforge.net/DTD/sodipodi-0.dtd"
   xmlns="http://www.w3.org/2000/svg"
   xmlns:svg="http://www.w3.org/2000/svg"><sodipodi:namedview
     id="namedview1"
     pagecolor="#ffffff"
     bordercolor="#000000"
     borderopacity="0.25"
     inkscape:showpageshadow="2"
     inkscape:pageopacity="0.0"
     inkscape:pagecheckerboard="0"
     inkscape:deskcolor="#d1d1d1"
     inkscape:document-units="mm" /><defs
     id="defs1" /><g
     inkscape:label="Layer 1"
     inkscape:groupmode="layer"
     id="layer1"
     transform="translate(2.1507752,-30.906768)"><path
       style="fill:#ffffff;fill-opacity:1"
       d="m 61.442353,243.32698 c -5.675975,-1.4881 -10.030616,-5.86482 -11.482183,-11.5404 -0.507773,-1.98537 -0.52267,-3.057 -0.52267,-37.59891 0,-38.19203 -0.01628,-37.69281 1.328918,-40.7585 l 0.49341,-1.12448 H 105 158.74017 l 0.49341,1.12448 c 1.3452,3.06569 1.32892,2.56647 1.32892,40.7585 0,34.54191 -0.0149,35.61354 -0.52267,37.59891 -1.44979,5.66863 -5.87265,10.09148 -11.54127,11.54128 -3.10249,0.79348 -84.029455,0.79267 -87.056207,-8.8e-4 z M 89.125,216.06927 v -3.96875 H 81.1875 73.25 v 3.96875 3.96875 h 7.9375 7.9375 z m 23.8125,0 v -3.96875 H 105 97.0625 v 3.96875 3.96875 H 105 h 7.9375 z m 23.8125,0 v -3.96875 h -7.9375 -7.9375 v 3.96875 3.96875 h 7.9375 7.9375 z M 85.464617,189.26896 c 9.406533,-4.60219 6.189084,-18.57573 -4.277117,-18.57573 -9.992681,0 -13.616101,12.89742 -5.101776,18.15956 2.459691,1.52017 6.734672,1.70987 9.378893,0.41617 z m 47.625003,0 c 9.40653,-4.60219 6.18908,-18.57573 -4.27712,-18.57573 -9.99268,0 -13.6161,12.89742 -5.10178,18.15956 2.45969,1.52017 6.73468,1.70987 9.3789,0.41617 z M 30.764352,219.49379 c -1.86315,-0.71681 -3.386101,-2.10795 -4.26333,-3.89435 l -0.74373,-1.51454 v -17.85938 c 0,-20.02029 -0.10565,-18.87812 1.96428,-21.23564 1.779385,-2.02661 3.194958,-2.43299 8.81749,-2.53132 L 41.5,172.3718 v 23.83311 23.83311 l -4.696354,-0.0138 c -4.00166,-0.0117 -4.895005,-0.0902 -6.039294,-0.53045 z M 168.5,196.24614 v -23.83312 h 4.62028 c 6.71469,0 9.22171,1.20073 10.68765,5.1188 0.85901,2.29593 0.89041,35.00757 0.0358,37.29175 -1.4925,3.98905 -3.6251,5.05074 -10.38278,5.16892 L 168.5,220.07925 Z M -2.1507753,144.16875 c 0.00301,-0.10914 1.87824548,-1.02475 4.1671875,-2.03469 2.288942,-1.00995 7.8526503,-3.46476 12.3637958,-5.45513 4.511146,-1.99038 16.298334,-7.19115 26.19375,-11.55727 9.895417,-4.36612 18.884636,-8.34069 19.976042,-8.83237 l 1.984375,-0.89397 41.110135,-0.0686 41.11013,-0.0686 10.35133,4.53349 c 22.27571,9.75592 32.15065,14.09358 41.17528,18.08665 5.16599,2.28577 10.37926,4.59157 11.58504,5.12402 1.8275,0.80698 2.09168,0.99671 1.5875,1.14014 -0.85167,0.24229 -211.6112468,0.26855 -211.6045653,0.0264 z M 66.10625,106.94905 c 0,-0.19665 9.483863,-21.001818 26.000339,-57.038108 2.767901,-6.039115 5.617934,-12.289896 6.333406,-13.890625 2.646875,-5.921863 7.783495,-6.907186 9.732915,-1.866998 0.23491,0.607355 5.91987,13.130326 12.43826,27.399289 17.03856,37.297954 20.63675,45.218552 20.63675,45.427102 0,0.0447 -16.90688,0.0812 -37.57084,0.0812 -20.663955,0 -37.57083,-0.0504 -37.57083,-0.11189 z m 33.786837,-10.228298 3.001303,-1.873523 2.95771,1.873523 c 4.96215,3.143209 6.08507,2.390044 4.30728,-2.888977 -1.23613,-3.670559 -1.34404,-3.344681 1.97204,-5.95524 4.77943,-3.76257 4.407,-4.715024 -1.95555,-5.001141 -3.68707,-0.165804 -3.48045,-0.02746 -4.77759,-3.198827 -1.92711,-4.711587 -3.23298,-4.745912 -5.03288,-0.132292 -1.303026,3.339996 -1.026999,3.159345 -5.126999,3.35546 -4.174535,0.19968 -4.68121,0.451149 -4.55725,2.261815 0.01724,0.251845 1.341036,1.49051 2.941766,2.752589 1.600729,1.262079 2.908226,2.425243 2.905549,2.584809 -0.0027,0.159565 -0.419396,1.588742 -0.926042,3.175948 -1.743566,5.462198 -0.73133,6.180764 4.290663,3.045856 z"
       id="path1"
       inkscape:export-filename="RobotWizard_BlackFill.svg"
       inkscape:export-xdpi="96.045883"
       inkscape:export-ydpi="96.045883" /></g></svg>
